<?xml version="1.0" encoding="UTF-8" standalone="no"?>
<!-- Created with Inkscape (http://www.inkscape.org/) -->

<svg
   width="100mm"
   height="100mm"
   viewBox="0 0 100 100"
   version="1.1"
   id="svg1"
   inkscape:export-filename="sats.svg"
   inkscape:export-xdpi="96"
   inkscape:export-ydpi="96"
   sodipodi:docname="sats.svg"
   inkscape:version="1.3 (0e150ed6c4, 2023-07-21)"
   xmlns:inkscape="http://www.inkscape.org/namespaces/inkscape"
   xmlns:sodipodi="http://sodipodi.sourceforge.net/DTD/sodipodi-0.dtd"
   xmlns="http://www.w3.org/2000/svg"
   xmlns:svg="http://www.w3.org/2000/svg">
  <sodipodi:namedview
     id="namedview1"
     pagecolor="#505050"
     bordercolor="#ffffff"
     borderopacity="1"
     inkscape:showpageshadow="0"
     inkscape:pageopacity="0"
     inkscape:pagecheckerboard="1"
     inkscape:deskcolor="#505050"
     inkscape:document-units="mm"
     inkscape:zoom="1"
     inkscape:cx="217"
     inkscape:cy="261.5"
     inkscape:window-width="1920"
     inkscape:window-height="1017"
     inkscape:window-x="-8"
     inkscape:window-y="-8"
     inkscape:window-maximized="1"
     inkscape:current-layer="layer1" />
  <defs
     id="defs1" />
  <g
     inkscape:label="Layer 1"
     inkscape:groupmode="layer"
     id="layer1">
    <path
       d="M 19.360575,7.9948608 14.602209,6.854362 6.4941772,40.682271 11.252543,41.82277 Z"
       style="font-weight:bold;font-size:64.1964px;line-height:0.8;font-family:Cambria;-inkscape-font-specification:'Cambria, Bold';letter-spacing:0px;display:inline;fill:#ffffff;stroke-width:0.2;stroke-linecap:round;stroke-linejoin:round;stroke-miterlimit:50;stroke:#ffffff;stroke-dasharray:none"
       id="path11" />
    <path
       d="M 11.252543,41.82277 6.4941772,40.682271 5.0208822,46.828149 9.779248,47.968648 Z"
       style="font-weight:bold;font-size:64.1964px;line-height:0.8;font-family:Cambria;-inkscape-font-specification:'Cambria, Bold';letter-spacing:0px;display:inline;fill:#ffffff;stroke-width:0.2;stroke-linecap:round;stroke-linejoin:round;stroke-miterlimit:50;stroke:#ffffff;stroke-dasharray:none"
       id="path10" />
    <path
       d="M 16.075505,0.70796712 14.602209,6.854362 19.360575,7.9948608 20.83387,1.848466 Z"
       style="font-weight:bold;font-size:64.1964px;line-height:0.8;font-family:Cambria;-inkscape-font-specification:'Cambria, Bold';letter-spacing:0px;display:inline;fill:#ffffff;stroke-width:0.2;stroke-linecap:round;stroke-linejoin:round;stroke-miterlimit:50;stroke:#ffffff;stroke-dasharray:none"
       id="path9" />
    <path
       d="m 23.077144,8.8852458 2.295467,0.550354 c 0.462608,0.1108811 0.902786,0.2222543 1.320333,0.3343465 0.396982,0.1065712 0.770295,0.2137615 1.126547,0.3214277 l 1.488798,-6.2115075 -4.75785,-1.1404988 z"
       style="font-weight:bold;font-size:64.1964px;line-height:0.8;font-family:Cambria;-inkscape-font-specification:'Cambria, Bold';letter-spacing:0px;fill:#ffffff;stroke-width:0.2;stroke-linecap:round;stroke-linejoin:round;stroke-miterlimit:50;stroke:#ffffff;stroke-dasharray:none"
       id="path6" />
    <path
       d="m 23.077144,8.8852458 -0.696598,2.9067992 c 0.21787,0.05535 0.430938,0.112841 0.63562,0.173633 0.05571,0.01606 0.116941,0.02976 0.171049,0.04651 0,0 5.17e-4,0 5.17e-4,0 0.164085,0.05079 0.310312,0.108872 0.465605,0.163297 0.155446,0.05448 0.319454,0.105201 0.466121,0.163298 0,0 5.17e-4,0 5.17e-4,0 0.131235,0.05199 0.24583,0.110995 0.370003,0.165881 0.153079,0.06766 0.313901,0.132029 0.456303,0.204122 0,0 5.17e-4,5.17e-4 5.17e-4,5.17e-4 0.07699,0.03898 0.141609,0.08319 0.21549,0.123506 0.173602,0.09466 0.349594,0.188115 0.505913,0.289905 0.0033,0.0022 0.006,0.0046 0.0093,0.0067 0.108034,0.07066 0.211787,0.143717 0.311609,0.219625 0.09989,0.07596 0.195656,0.154954 0.287321,0.236161 0.0025,0.0022 0.0058,0.004 0.0083,0.0062 0.09405,0.08369 0.183372,0.170169 0.268717,0.259416 0,0 5.17e-4,5.17e-4 5.17e-4,5.17e-4 0.0091,0.0095 0.01684,0.01987 0.02584,0.02946 0.07526,0.08012 0.148704,0.161964 0.217041,0.246497 0.01127,0.01395 0.02095,0.02882 0.03204,0.04289 0.0033,0.0045 0.0064,0.009 0.0098,0.01344 l 0.980819,-4.092256 C 27.463239,9.9837078 27.089926,9.8765175 26.692944,9.7699463 26.275397,9.6578541 25.835219,9.5464809 25.372611,9.4355998 Z"
       style="font-weight:bold;font-size:64.1964px;line-height:0.8;font-family:Cambria;-inkscape-font-specification:'Cambria, Bold';letter-spacing:0px;fill:#ffffff;stroke-width:0.2;stroke-linecap:round;stroke-linejoin:round;stroke-miterlimit:50;stroke:#ffffff;stroke-dasharray:none"
       id="path5" />
    <path
       d="m 19.765719,43.69294 c -0.07151,-0.0096 -0.134708,-0.01289 -0.207223,-0.02325 -0.496214,-0.07089 -1.016162,-0.159902 -1.559595,-0.266134 -0.543432,-0.106231 -1.110538,-0.229982 -1.701188,-0.371553 l -1.328601,-0.318327 -1.473295,6.145878 4.758366,1.140499 z"
       style="font-weight:bold;font-size:64.1964px;line-height:0.8;font-family:Cambria;-inkscape-font-specification:'Cambria, Bold';letter-spacing:0px;fill:#ffffff;stroke-width:0.2;stroke-linecap:round;stroke-linejoin:round;stroke-miterlimit:50;stroke:#ffffff;stroke-dasharray:none"
       id="path4" />
    <path
       d="m 19.765719,43.69294 0.941544,-3.927409 c -0.02789,0.01193 -0.05454,0.02633 -0.08268,0.03772 0,0 -5.17e-4,0 -5.17e-4,0 -0.12455,0.05041 -0.251182,0.0955 -0.380855,0.135392 -0.129674,0.0399 -0.262077,0.07449 -0.396875,0.10387 -0.134797,0.02938 -0.27194,0.05347 -0.411861,0.07235 -0.137364,0.01731 -0.27903,0.03053 -0.423747,0.03979 -0.144718,0.0093 -0.292346,0.0148 -0.444417,0.01602 0,0 -5.17e-4,0 -5.17e-4,0 0,0 -5.17e-4,0 -5.17e-4,0 -0.151751,0.0012 -0.307565,-0.002 -0.466638,-0.0088 -0.159425,-0.0068 -0.322598,-0.01769 -0.489376,-0.03256 -0.333557,-0.02972 -0.681924,-0.07506 -1.044897,-0.136942 -0.287926,-0.04909 -0.592262,-0.116177 -0.898654,-0.185518 l -0.696598,2.906799 1.328601,0.318327 c 0.59065,0.141571 1.157756,0.265322 1.701188,0.371553 0.543433,0.106232 1.063381,0.195242 1.559595,0.266134 0.07251,0.01036 0.135716,0.01365 0.207223,0.02325 z"
       style="font-weight:bold;font-size:64.1964px;line-height:0.8;font-family:Cambria;-inkscape-font-specification:'Cambria, Bold';letter-spacing:0px;fill:#ffffff;stroke-width:0.2;stroke-linecap:round;stroke-linejoin:round;stroke-miterlimit:50;stroke:#ffffff;stroke-dasharray:none"
       id="path3" />
    <path
       d="m 19.360575,7.9948608 -8.108032,33.8279092 3.716569,0.890902 0.696598,-2.906799 c -0.07985,-0.01807 -0.152989,-0.02914 -0.234094,-0.04858 -0.636085,-0.152462 -1.233371,-0.302036 -1.792138,-0.449068 -0.558768,-0.147033 -1.079179,-0.291445 -1.560629,-0.433049 l 3.148129,-13.135116 3.444751,0.82579 c 0.309781,0.07425 0.604963,0.153126 0.885217,0.236678 0.280254,0.08355 0.545607,0.171729 0.796334,0.264583 0.250726,0.09285 0.486768,0.190334 0.707967,0.292489 0.221198,0.102155 0.427929,0.208937 0.6196,0.320394 0.192661,0.107326 0.375571,0.222233 0.549321,0.344682 0.173749,0.122448 0.338155,0.252586 0.492993,0.390157 0.154838,0.13757 0.300223,0.28294 0.436149,0.435632 0.135926,0.152692 0.26229,0.312777 0.379305,0.480591 0.118005,0.163683 0.224106,0.335851 0.318327,0.516764 0.09422,0.180913 0.176577,0.370815 0.247013,0.568958 0.07044,0.198142 0.129048,0.404744 0.1757,0.620117 0.04665,0.215372 0.08152,0.439191 0.104386,0.671793 0.02386,0.228472 0.03558,0.465884 0.03566,0.711585 7.3e-5,0.245701 -0.01143,0.499813 -0.03514,0.762744 -0.02371,0.262931 -0.05947,0.53426 -0.10697,0.814421 -0.0475,0.28016 -0.107003,0.569223 -0.178284,0.866613 -0.100981,0.421303 -0.214067,0.815938 -0.339514,1.184424 -0.06272,0.184243 -0.128564,0.362262 -0.197404,0.533301 -0.06884,0.171039 -0.140534,0.335159 -0.215491,0.492993 -0.07496,0.157834 -0.153021,0.309089 -0.234094,0.453719 -0.08107,0.14463 -0.165508,0.282503 -0.252698,0.413928 -0.08719,0.131426 -0.177478,0.256433 -0.270784,0.374655 -0.09331,0.118221 -0.189449,0.229846 -0.288871,0.334863 -0.09893,0.102952 -0.200323,0.200563 -0.304375,0.293005 -0.104051,0.09244 -0.2107,0.17955 -0.319877,0.261483 -0.109176,0.08193 -0.221079,0.159054 -0.33538,0.230477 -0.114301,0.07142 -0.230941,0.137524 -0.350366,0.198437 -0.09244,0.04715 -0.187681,0.08834 -0.283187,0.129191 l -0.941544,3.927409 c 0.417807,0.05612 0.827397,0.105553 1.210778,0.135909 0.448997,0.03555 0.874113,0.05353 1.275892,0.05374 0.405909,0.0012 0.802276,-0.01364 1.188557,-0.04444 0.386282,-0.0308 0.762476,-0.07724 1.12913,-0.140043 0.366655,-0.0628 0.72371,-0.141872 1.070736,-0.236678 0.347027,-0.09481 0.683909,-0.205471 1.011308,-0.33228 0.16626,-0.06497 0.328734,-0.134341 0.487309,-0.208256 0.158575,-0.07391 0.313164,-0.152274 0.464054,-0.235127 0.15089,-0.08285 0.298111,-0.170207 0.441317,-0.262 0.143206,-0.09179 0.282541,-0.188139 0.418062,-0.288871 0.135521,-0.100733 0.267489,-0.206071 0.395325,-0.315743 0.127836,-0.109672 0.251402,-0.223487 0.371553,-0.342098 0.120152,-0.118612 0.236866,-0.241936 0.349333,-0.369487 0.112467,-0.127551 0.220779,-0.259351 0.325562,-0.395841 0.106847,-0.135995 0.210379,-0.276352 0.310058,-0.421163 0.09968,-0.144811 0.195844,-0.294408 0.288355,-0.448035 0.09251,-0.153626 0.181308,-0.31143 0.26665,-0.473873 0.08534,-0.162442 0.167289,-0.329486 0.245463,-0.500744 0.156348,-0.342517 0.298139,-0.702775 0.425814,-1.080554 0.127674,-0.37778 0.24103,-0.772933 0.340031,-1.185975 0.05791,-0.241629 0.105401,-0.481387 0.14211,-0.718819 0.03671,-0.237431 0.06253,-0.472667 0.07803,-0.7059 0.0155,-0.233233 0.02069,-0.464463 0.01499,-0.693497 -0.0057,-0.229035 -0.02218,-0.455743 -0.04909,-0.680579 -0.02691,-0.224836 -0.06453,-0.447539 -0.112655,-0.668176 -0.04812,-0.220638 -0.10689,-0.439335 -0.176216,-0.655774 -0.06933,-0.21644 -0.149246,-0.430614 -0.239779,-0.642855 -0.09053,-0.212241 -0.1916,-0.42241 -0.303341,-0.630453 -0.109179,-0.209613 -0.228133,-0.416167 -0.357084,-0.6196 -0.128951,-0.203433 -0.267789,-0.403745 -0.416512,-0.600997 -0.148722,-0.197252 -0.307446,-0.391321 -0.47594,-0.582393 -0.168493,-0.191072 -0.347103,-0.379415 -0.535368,-0.564307 -0.188264,-0.184891 -0.386243,-0.366475 -0.594278,-0.545186 -0.208036,-0.178711 -0.4259,-0.354569 -0.653707,-0.5271 -0.227807,-0.172531 -0.465557,-0.341629 -0.713135,-0.507979 -0.247578,-0.166351 -0.505214,-0.329723 -0.772563,-0.489893 l 0.05374,-0.223242 c 0.308836,-0.04936 0.609757,-0.104501 0.902787,-0.165365 0.29303,-0.06086 0.578021,-0.127106 0.855245,-0.199471 0.277224,-0.07236 0.546802,-0.150746 0.808219,-0.234611 0.261418,-0.08386 0.514549,-0.173352 0.760161,-0.268717 0.245611,-0.09537 0.48333,-0.196475 0.713134,-0.303341 0.229805,-0.106865 0.452111,-0.219598 0.66611,-0.337964 0.213998,-0.118365 0.419857,-0.242204 0.61805,-0.37207 0.198192,-0.129866 0.388638,-0.265844 0.571024,-0.40721 0.182386,-0.141366 0.356903,-0.28845 0.523483,-0.441317 0.166579,-0.152866 0.325166,-0.311573 0.47594,-0.47594 0.150773,-0.164367 0.29343,-0.334179 0.428397,-0.510046 0.134967,-0.175867 0.262211,-0.357819 0.381372,-0.545187 0.119161,-0.187367 0.230476,-0.380425 0.33383,-0.579292 0.103354,-0.198868 0.198739,-0.403548 0.286287,-0.613916 0.08755,-0.210369 0.167004,-0.426154 0.238746,-0.648023 0.07174,-0.221868 0.135784,-0.449794 0.191719,-0.683162 0.08316,-0.346956 0.145225,-0.686158 0.186552,-1.018026 0.02066,-0.165934 0.0363,-0.329798 0.04651,-0.49196 0.0102,-0.162162 0.01524,-0.322717 0.01499,-0.481107 -2.53e-4,-0.158391 -0.0058,-0.314604 -0.01654,-0.469222 -0.01071,-0.154619 -0.02689,-0.307524 -0.04806,-0.45837 -0.02117,-0.150847 -0.04744,-0.299927 -0.07906,-0.447001 -0.03163,-0.147075 -0.0685,-0.29233 -0.110587,-0.435633 -0.04209,-0.143303 -0.08822,-0.283417 -0.13901,-0.421163 -0.05079,-0.137745 -0.105872,-0.272955 -0.165364,-0.405143 -0.05949,-0.132188 -0.123525,-0.26146 -0.19172,-0.38809 -0.06819,-0.12663 -0.14066,-0.250481 -0.217558,-0.371553 -0.0769,-0.121073 -0.158312,-0.239502 -0.243912,-0.355018 -0.0856,-0.115515 -0.175449,-0.228006 -0.269751,-0.337963 -0.0943,-0.109958 -0.193101,-0.217545 -0.296106,-0.321945 -0.103006,-0.104399 -0.210237,-0.206048 -0.321944,-0.30489 -0.248369,-0.221137 -0.512571,-0.433598 -0.7922,-0.638204 -0.279629,-0.204607 -0.574845,-0.401035 -0.885734,-0.589112 -0.310889,-0.188077 -0.637119,-0.367955 -0.979269,-0.539502 -0.342149,-0.171547 -0.69991,-0.334875 -1.073319,-0.489892 -0.28237,-0.115726 -0.587244,-0.230685 -0.914673,-0.345199 -0.327429,-0.114514 -0.677577,-0.228795 -1.050065,-0.342098 -0.01835,-0.0056 -0.03994,-0.01096 -0.05839,-0.01654 l -0.980819,4.092256 c 0.06051,0.07739 0.119828,0.155153 0.174666,0.236162 0.06794,0.100362 0.13145,0.203621 0.190686,0.309541 0.05924,0.105921 0.114314,0.214601 0.164848,0.326079 0.05053,0.111478 0.09666,0.225579 0.138493,0.342615 0.04233,0.11497 0.07972,0.233508 0.111621,0.355533 0.0319,0.122026 0.05862,0.247641 0.0801,0.376722 0.02147,0.12908 0.03753,0.261772 0.04858,0.397908 0.01105,0.136136 0.01695,0.275905 0.01757,0.419096 0.0012,0.286383 -0.01845,0.586633 -0.05891,0.901237 -0.04047,0.314604 -0.101797,0.643161 -0.183968,0.985986 -0.09306,0.38826 -0.196436,0.752393 -0.310575,1.091923 -0.114139,0.339531 -0.238921,0.654878 -0.374138,0.945679 -0.06761,0.1454 -0.137961,0.284327 -0.210839,0.417546 -0.07288,0.133218 -0.148196,0.260336 -0.226343,0.381372 -0.07815,0.121035 -0.158946,0.236345 -0.242363,0.345198 -0.08342,0.108854 -0.169695,0.211321 -0.258382,0.307992 -0.172253,0.190202 -0.356162,0.364476 -0.551387,0.522965 -0.195226,0.15849 -0.401919,0.301104 -0.620118,0.427881 -0.218198,0.126777 -0.447675,0.237732 -0.688846,0.332796 -0.241172,0.09507 -0.493949,0.17436 -0.758094,0.237712 -0.132072,0.03168 -0.268932,0.05857 -0.410311,0.0801 -0.141378,0.02153 -0.287015,0.03771 -0.437699,0.04909 -0.150684,0.01138 -0.306131,0.01789 -0.466121,0.01912 -0.159991,0.0012 -0.324731,-0.0025 -0.494027,-0.01137 -0.338593,-0.01782 -0.695952,-0.05631 -1.071769,-0.114721 -0.375818,-0.05841 -0.769832,-0.137161 -1.182874,-0.236162 L 15.922026,22.842017 18.74976,11.045321 c 0.555116,0.08938 1.115897,0.190901 1.682585,0.304891 0.566687,0.113989 1.138949,0.240186 1.717207,0.378788 0.08091,0.01939 0.151822,0.04293 0.230994,0.06305 l 0.696598,-2.9067992 z"
       style="font-weight:bold;font-size:64.1964px;line-height:0.8;font-family:Cambria;-inkscape-font-specification:'Cambria, Bold';letter-spacing:0px;display:inline;fill:#ffffff;stroke-width:0.2;stroke-linecap:round;stroke-linejoin:round;stroke-miterlimit:50;stroke:#ffffff;stroke-dasharray:none"
       id="path2" />
    <path
       d="M 6.4941772,40.682271 14.602209,6.854362 9.1400106,5.5448812 8.7477865,7.1804403 c 0.2941117,0.1578491 0.5516381,0.3132279 0.7725626,0.4666382 0.1104623,0.076705 0.211692,0.1533311 0.3038574,0.2289265 0.092166,0.075595 0.1752118,0.1503068 0.2490805,0.2247925 0.07899,0.071345 0.150873,0.1455726 0.215491,0.2222087 0.06462,0.076636 0.122352,0.1557847 0.172599,0.2377116 0.05025,0.081927 0.09332,0.1665136 0.129191,0.2537313 0.03588,0.087218 0.06428,0.1772424 0.08578,0.2697509 0.02563,0.093499 0.04502,0.191927 0.05839,0.2955892 0.01337,0.1036623 0.0206,0.2122523 0.0217,0.3260783 0.0011,0.113826 -0.0038,0.2330944 -0.01499,0.3570845 -0.01116,0.123989 -0.02826,0.252903 -0.05168,0.387056 -0.03858,0.270287 -0.09076,0.569897 -0.15658,0.89917 -0.06582,0.329273 -0.145167,0.688161 -0.238228,1.07642 l -5.1206178,21.36252 c -0.095041,0.396521 -0.1879775,0.758776 -0.2795695,1.086239 -0.091592,0.327464 -0.1816078,0.620093 -0.269751,0.878499 -0.043082,0.125073 -0.089109,0.243801 -0.1379761,0.356568 -0.048867,0.112767 -0.1008928,0.219416 -0.155546,0.319877 -0.054653,0.100461 -0.1121603,0.195032 -0.1725993,0.283187 -0.060439,0.08816 -0.1234277,0.170131 -0.1896525,0.24598 -0.061104,0.07271 -0.1274387,0.139543 -0.1989543,0.201021 -0.071516,0.06148 -0.14855,0.117702 -0.2304769,0.167948 -0.081927,0.05025 -0.1691446,0.09483 -0.2614827,0.133842 -0.092338,0.03902 -0.1897393,0.07247 -0.2924886,0.100253 -0.1952579,0.04929 -0.4228079,0.0885 -0.6831625,0.117822 -0.2603546,0.02932 -0.5535648,0.04853 -0.8790161,0.05788 l -0.3917073,1.63556 z"
       style="font-weight:bold;font-size:64.1964px;line-height:0.8;font-family:Cambria;-inkscape-font-specification:'Cambria, Bold';letter-spacing:0px;display:inline;fill:#ffffff;stroke-width:0.2;stroke-linecap:round;stroke-linejoin:round;stroke-miterlimit:50;stroke:#ffffff;stroke-dasharray:none"
       id="path1" />
    <g
       id="g9"
       transform="matrix(1.1492019,0.20483632,-0.20483632,1.1492019,17.759408,-13.468553)">
      <rect
         style="fill:#ffffff;stroke-width:3;stroke-linecap:round;stroke-linejoin:round;stroke-miterlimit:50"
         id="rect8"
         width="51.258999"
         height="7.6729164"
         x="24.370501"
         y="46.163544"
         ry="3.8364582" />
      <rect
         style="fill:#ffffff;stroke-width:3;stroke-linecap:round;stroke-linejoin:round;stroke-miterlimit:50"
         id="rect8-4"
         width="51.258999"
         height="7.6729164"
         x="24.370501"
         y="65.604164"
         ry="3.8364582" />
      <rect
         style="fill:#ffffff;stroke-width:3;stroke-linecap:round;stroke-linejoin:round;stroke-miterlimit:50"
         id="rect8-8"
         width="51.258999"
         height="7.6729164"
         x="24.370501"
         y="26.722918"
         ry="3.8364582" />
      <rect
         style="fill:#ffffff;stroke-width:3;stroke-linecap:round;stroke-linejoin:round;stroke-miterlimit:50"
         id="rect8-8-6"
         width="10.426"
         height="7.6729164"
         x="11.319569"
         y="-53.836456"
         ry="3.8364582"
         transform="rotate(90)" />
      <rect
         style="fill:#ffffff;stroke-width:3;stroke-linecap:round;stroke-linejoin:round;stroke-miterlimit:50"
         id="rect8-8-6-8"
         width="10.426"
         height="7.6729164"
         x="78.254433"
         y="-53.836456"
         ry="3.8364582"
         transform="rotate(90)" />
    </g>
  </g>
</svg>
