<?xml version="1.0" encoding="UTF-8" standalone="no"?>
<!-- Created with Inkscape (http://www.inkscape.org/) -->

<svg
   width="100mm"
   height="100mm"
   viewBox="0 0 100 100"
   version="1.1"
   id="svg1"
   inkscape:export-filename="sats.svg"
   inkscape:export-xdpi="96"
   inkscape:export-ydpi="96"
   xmlns:inkscape="http://www.inkscape.org/namespaces/inkscape"
   xmlns:sodipodi="http://sodipodi.sourceforge.net/DTD/sodipodi-0.dtd"
   xmlns="http://www.w3.org/2000/svg"
   xmlns:svg="http://www.w3.org/2000/svg">
  <sodipodi:namedview
     id="namedview1"
     pagecolor="#505050"
     bordercolor="#ffffff"
     borderopacity="1"
     inkscape:showpageshadow="0"
     inkscape:pageopacity="0"
     inkscape:pagecheckerboard="1"
     inkscape:deskcolor="#505050"
     inkscape:document-units="mm" />
  <defs
     id="defs1" />
  <g
     inkscape:label="Layer 1"
     inkscape:groupmode="layer"
     id="layer1">
    <g
       id="g8"
       transform="matrix(0.79061525,0.18950059,-0.18950059,0.79061525,-4.6715513,-26.695413)"
       style="display:inline">
      <text
         xml:space="preserve"
         style="font-style:normal;font-variant:normal;font-weight:bold;font-stretch:normal;font-size:64.1964px;line-height:0.8;font-family:Cambria;-inkscape-font-specification:'Cambria, Bold';font-variant-ligatures:normal;font-variant-caps:normal;font-variant-numeric:normal;font-variant-east-asian:normal;letter-spacing:0px;display:inline;fill:#ffffff;stroke-width:3;stroke-linecap:round;stroke-linejoin:round;stroke-miterlimit:50"
         x="22.754166"
         y="77.390625"
         id="text1"><tspan
           sodipodi:role="line"
           id="tspan1"
           style="font-style:normal;font-variant:normal;font-weight:bold;font-stretch:normal;font-size:64.1964px;font-family:Cambria;-inkscape-font-specification:'Cambria, Bold';font-variant-ligatures:normal;font-variant-caps:normal;font-variant-numeric:normal;font-variant-east-asian:normal;fill:#ffffff;stroke-width:3"
           x="22.754166"
           y="77.390625">B</tspan></text>
      <text
         xml:space="preserve"
         style="font-style:normal;font-variant:normal;font-weight:bold;font-stretch:normal;font-size:64.1964px;line-height:0.8;font-family:Cambria;-inkscape-font-specification:'Cambria, Bold';font-variant-ligatures:normal;font-variant-caps:normal;font-variant-numeric:normal;font-variant-east-asian:normal;letter-spacing:0px;display:inline;fill:#ffffff;stroke-width:3;stroke-linecap:round;stroke-linejoin:round;stroke-miterlimit:50"
         x="25.4"
         y="71.685669"
         id="text2"><tspan
           sodipodi:role="line"
           id="tspan2"
           style="stroke-width:3"
           x="25.4"
           y="71.685669">|</tspan></text>
      <path
         d="m 49.409904,72.218848 c -0.03005,0.02236 -0.05787,0.04748 -0.08837,0.06925 -0.134526,0.096 -0.27336,0.186411 -0.417029,0.271301 -0.143667,0.0849 -0.292123,0.164439 -0.444934,0.238229 -0.15281,0.07379 -0.309853,0.141948 -0.471805,0.204638 -0.159342,0.06008 -0.324618,0.116412 -0.495061,0.168982 -0.170442,0.05258 -0.346071,0.101185 -0.527616,0.146245 -0.181545,0.04506 -0.36856,0.08647 -0.561206,0.124023 -0.192647,0.03755 -0.391048,0.07125 -0.594796,0.101286 -0.407495,0.06008 -0.837424,0.105352 -1.289327,0.135392 -0.358468,0.02383 -0.741735,0.03076 -1.128096,0.03566 v 11.450464 h 6.018237 z"
         style="font-weight:bold;font-size:64.1964px;line-height:0.8;font-family:Cambria;-inkscape-font-specification:'Cambria, Bold';letter-spacing:0px;fill:#ffffff;stroke-width:3;stroke-linecap:round;stroke-linejoin:round;stroke-miterlimit:50"
         id="path8" />
      <path
         d="m 43.391667,26.829887 v 11.450464 c 0.350962,0.0047 0.700302,0.01019 1.028361,0.03152 0.421862,0.02743 0.824726,0.06865 1.208711,0.123507 0.383987,0.05485 0.748913,0.123392 1.095024,0.205672 0.346111,0.08228 0.673619,0.178644 0.981852,0.288355 0.154117,0.05486 0.303768,0.114283 0.449068,0.178283 0.145302,0.064 0.286229,0.132533 0.422714,0.205673 0.136485,0.07314 0.268689,0.15078 0.396358,0.23306 0.127669,0.08228 0.250633,0.16902 0.369486,0.26045 0.02305,0.01773 0.04392,0.03774 0.06666,0.05581 V 26.829887 Z"
         style="font-weight:bold;font-size:64.1964px;line-height:0.8;font-family:Cambria;-inkscape-font-specification:'Cambria, Bold';letter-spacing:0px;fill:#ffffff;stroke-width:3;stroke-linecap:round;stroke-linejoin:round;stroke-miterlimit:50"
         id="path7" />
    </g>
    <g
       id="g9"
       transform="matrix(1.1492019,0.20483632,-0.20483632,1.1492019,17.759408,-13.468553)">
      <rect
         style="fill:#ffffff;stroke-width:3;stroke-linecap:round;stroke-linejoin:round;stroke-miterlimit:50"
         id="rect8"
         width="51.258999"
         height="7.6729164"
         x="24.370501"
         y="46.163544"
         ry="3.8364582" />
      <rect
         style="fill:#ffffff;stroke-width:3;stroke-linecap:round;stroke-linejoin:round;stroke-miterlimit:50"
         id="rect8-4"
         width="51.258999"
         height="7.6729164"
         x="24.370501"
         y="65.604164"
         ry="3.8364582" />
      <rect
         style="fill:#ffffff;stroke-width:3;stroke-linecap:round;stroke-linejoin:round;stroke-miterlimit:50"
         id="rect8-8"
         width="51.258999"
         height="7.6729164"
         x="24.370501"
         y="26.722918"
         ry="3.8364582" />
      <rect
         style="fill:#ffffff;stroke-width:3;stroke-linecap:round;stroke-linejoin:round;stroke-miterlimit:50"
         id="rect8-8-6"
         width="10.426"
         height="7.6729164"
         x="11.319569"
         y="-53.836456"
         ry="3.8364582"
         transform="rotate(90)" />
      <rect
         style="fill:#ffffff;stroke-width:3;stroke-linecap:round;stroke-linejoin:round;stroke-miterlimit:50"
         id="rect8-8-6-8"
         width="10.426"
         height="7.6729164"
         x="78.254433"
         y="-53.836456"
         ry="3.8364582"
         transform="rotate(90)" />
    </g>
  </g>
</svg>
