<?xml version="1.0" encoding="UTF-8" standalone="no"?>
<!-- Created with Inkscape (http://www.inkscape.org/) -->

<svg
   width="210mm"
   height="210mm"
   viewBox="0 0 210 210"
   version="1.1"
   id="svg1"
   sodipodi:docname="new.svg"
   xmlns:inkscape="http://www.inkscape.org/namespaces/inkscape"
   xmlns:sodipodi="http://sodipodi.sourceforge.net/DTD/sodipodi-0.dtd"
   xmlns:xlink="http://www.w3.org/1999/xlink"
   xmlns="http://www.w3.org/2000/svg"
   xmlns:svg="http://www.w3.org/2000/svg">
  <sodipodi:namedview
     id="namedview1"
     pagecolor="#505050"
     bordercolor="#ffffff"
     borderopacity="1"
     inkscape:showpageshadow="0"
     inkscape:pageopacity="0"
     inkscape:pagecheckerboard="1"
     inkscape:deskcolor="#505050"
     inkscape:document-units="mm" />
  <defs
     id="defs1">
    <linearGradient
       id="linearGradient10"
       inkscape:collect="always">
      <stop
         style="stop-color:#b98600;stop-opacity:1;"
         offset="0"
         id="stop9" />
      <stop
         style="stop-color:#482200;stop-opacity:1;"
         offset="1"
         id="stop10" />
    </linearGradient>
    <linearGradient
       id="linearGradient7"
       inkscape:collect="always">
      <stop
         style="stop-color:#ffda00;stop-opacity:1;"
         offset="0"
         id="stop7" />
      <stop
         style="stop-color:#835800;stop-opacity:1;"
         offset="1"
         id="stop8" />
    </linearGradient>
    <linearGradient
       id="swatch1"
       inkscape:swatch="solid">
      <stop
         style="stop-color:#9a476c;stop-opacity:1;"
         offset="0"
         id="stop1" />
    </linearGradient>
    <linearGradient
       inkscape:collect="always"
       xlink:href="#linearGradient10"
       id="linearGradient8"
       x1="25.585091"
       y1="36.310322"
       x2="194.7879"
       y2="159.43465"
       gradientUnits="userSpaceOnUse" />
    <linearGradient
       inkscape:collect="always"
       xlink:href="#linearGradient7"
       id="linearGradient9"
       gradientUnits="userSpaceOnUse"
       x1="25.585091"
       y1="36.310322"
       x2="194.7879"
       y2="159.43465"
       gradientTransform="matrix(0.88342857,0,0,0.88342857,12.239998,12.24)" />
    <filter
       style="color-interpolation-filters:sRGB"
       inkscape:label="Drop Shadow"
       id="filter31"
       x="-0.29480676"
       y="-0.19215484"
       width="1.5896145"
       height="1.3843097">
      <feFlood
         result="flood"
         in="SourceGraphic"
         flood-opacity="0.501961"
         flood-color="rgb(255,255,255)"
         id="feFlood30" />
      <feGaussianBlur
         result="blur"
         in="SourceGraphic"
         stdDeviation="10.000000"
         id="feGaussianBlur30" />
      <feOffset
         result="offset"
         in="blur"
         dx="0.000000"
         dy="0.000000"
         id="feOffset30" />
      <feComposite
         result="comp1"
         operator="in"
         in="flood"
         in2="offset"
         id="feComposite30" />
      <feComposite
         result="comp2"
         operator="over"
         in="SourceGraphic"
         in2="comp1"
         id="feComposite31" />
    </filter>
  </defs>
  <g
     inkscape:label="Layer 1"
     inkscape:groupmode="layer"
     id="layer1">
    <circle
       style="fill:url(#linearGradient8);fill-opacity:1;fill-rule:nonzero;stroke-width:35.0999;stroke-linecap:round;stroke-linejoin:round;stroke-miterlimit:50"
       id="path1"
       r="105"
       cy="105"
       cx="105" />
    <circle
       style="fill:url(#linearGradient9);fill-opacity:1;fill-rule:nonzero;stroke-width:31.0083;stroke-linecap:round;stroke-linejoin:round;stroke-miterlimit:50"
       id="path1-6"
       r="92.760002"
       cy="105"
       cx="105" />
    <path
       d="m 99.315902,33.44292 v 15.105538 c -1.362619,0.175194 -2.688643,0.386608 -3.978569,0.635103 -1.289925,0.248496 -2.543687,0.533873 -3.761527,0.856279 -1.217841,0.322405 -2.399673,0.68208 -3.546037,1.079004 -1.146364,0.396923 -2.257118,0.831229 -3.332613,1.303279 -1.075496,0.47205 -2.116021,0.981838 -3.121257,1.529623 -1.005235,0.547784 -1.97535,1.133387 -2.910933,1.757515 -0.935584,0.624128 -1.836137,1.286913 -2.702678,1.987992 -0.86654,0.70108 -1.6989,1.440864 -2.497005,2.219503 -0.817571,0.759173 -1.581767,1.542406 -2.292883,2.350244 -0.711117,0.807839 -1.369195,1.639986 -1.975073,2.496489 -0.30294,0.428251 -0.592857,0.862862 -0.869715,1.303279 -0.276858,0.440418 -0.540754,0.886869 -0.791683,1.339454 -0.250928,0.452584 -0.489016,0.911393 -0.714168,1.376143 -0.225151,0.46475 -0.437127,0.9354 -0.636654,1.412317 -0.399052,0.953833 -0.747433,1.93169 -1.044897,2.934188 -0.297465,1.002498 -0.543947,2.029786 -0.74104,3.080949 -0.197093,1.051162 -0.344412,2.126331 -0.44235,3.226159 -0.09794,1.099828 -0.146761,2.223911 -0.146761,3.372404 0,0.622912 0.01473,1.233776 0.04392,1.832963 0.0292,0.599187 0.07286,1.187037 0.131258,1.763717 0.0584,0.57668 0.131511,1.142182 0.219108,1.697571 0.0876,0.555388 0.189645,1.100761 0.306441,1.636075 0.116796,0.535315 0.248296,1.060708 0.394291,1.577165 0.145995,0.516457 0.306431,1.023572 0.481625,1.522388 0.175193,0.498816 0.365081,0.989353 0.569474,1.471745 0.204393,0.482391 0.423216,0.957019 0.656807,1.424202 0.233592,0.447718 0.481867,0.888036 0.744658,1.32085 0.26279,0.432814 0.540517,0.858072 0.832507,1.275374 0.29199,0.417302 0.598135,0.82665 0.919324,1.227832 0.321188,0.401182 0.657303,0.794286 1.00769,1.178736 0.350388,0.38446 0.715437,0.75995 1.095024,1.12707 0.379586,0.36711 0.773571,0.7257 1.182357,1.07487 0.408785,0.34917 0.832222,0.68895 1.270206,1.01957 0.437985,0.33062 0.890357,0.6518 1.35754,0.96325 0.661843,0.42825 1.353168,0.8468 2.075842,1.25315 0.722675,0.40636 1.477123,0.80071 2.265495,1.18029 0.788372,0.37959 1.610681,0.74449 2.469617,1.09244 0.858936,0.34796 1.754358,0.67919 2.688725,0.99064 0.934367,0.31146 1.936723,0.6227 3.012219,0.93173 1.075495,0.30902 2.224079,0.61553 3.450435,0.91725 1.226357,0.30173 2.53064,0.59877 3.917591,0.88832 1.386951,0.28956 2.856405,0.57187 4.413684,0.84439 v 27.5637 c -0.661844,-0.1168 -1.314001,-0.2483 -1.956987,-0.39429 -0.642985,-0.146 -1.276865,-0.30643 -1.902209,-0.48163 -0.625345,-0.17519 -1.24213,-0.36508 -1.85105,-0.56947 -0.60892,-0.2044 -1.209795,-0.42322 -1.803508,-0.65681 -0.593712,-0.23359 -1.179861,-0.48187 -1.759582,-0.74466 -0.579721,-0.26279 -1.152845,-0.54 -1.719792,-0.83199 -0.566946,-0.29199 -1.127712,-0.59865 -1.683101,-0.91984 -0.555389,-0.32119 -1.105498,-0.6573 -1.650545,-1.00769 -0.545048,-0.35039 -1.082678,-0.71298 -1.612822,-1.0883 -0.530144,-0.37533 -1.052714,-0.76331 -1.567346,-1.16479 -0.514632,-0.40149 -1.021292,-0.81603 -1.519804,-1.24489 -0.498511,-0.42886 -0.988928,-0.87218 -1.470711,-1.32963 -0.481783,-0.45745 -0.955106,-0.92919 -1.419552,-1.41645 -0.464446,-0.48726 -0.92034,-0.98964 -1.366841,-1.50792 -0.446501,-0.51828 -0.883601,-1.05248 -1.311548,-1.603 -0.427948,-0.55053 -0.846435,-1.11773 -1.255221,-1.70171 L 58.35974,141.36243 c 0.48665,0.70078 0.999777,1.38433 1.539958,2.05104 0.540181,0.66671 1.107476,1.31659 1.701188,1.94923 0.593713,0.63265 1.214141,1.24834 1.861385,1.84692 0.647244,0.59858 1.321324,1.18008 2.022099,1.7446 0.700775,0.56451 1.427989,1.11182 2.182296,1.64227 0.754306,0.53045 1.535688,1.04409 2.343526,1.54048 0.807838,0.49638 1.642353,0.97532 2.503723,1.43764 0.86137,0.46231 1.749536,0.90758 2.664437,1.33583 0.895435,0.44772 1.805219,0.87352 2.729549,1.27744 0.92433,0.40392 1.863232,0.78607 2.815849,1.14619 0.952616,0.36012 1.91927,0.6986 2.899564,1.01492 0.980295,0.31632 1.973849,0.61063 2.981214,0.88315 1.007364,0.27252 2.028519,0.52317 3.062345,0.75189 1.033826,0.22873 2.080698,0.43571 3.140377,0.62064 1.059679,0.18492 2.131934,0.34773 3.216858,0.48886 1.084924,0.14112 2.182228,0.26027 3.291789,0.3576 v 15.10554 h 16.663073 v -15.41715 c 1.36262,-0.19466 2.68885,-0.428 3.97908,-0.70022 1.29023,-0.27222 2.54454,-0.58307 3.7636,-0.93224 1.21905,-0.34917 2.40262,-0.73669 3.55172,-1.1622 1.1491,-0.42552 2.26362,-0.88885 3.34397,-1.3901 1.08037,-0.50125 2.1265,-1.04058 3.13934,-1.61695 1.01285,-0.57638 1.99231,-1.18983 2.93884,-1.84072 0.94654,-0.65089 1.86051,-1.33915 2.74195,-2.06396 0.88145,-0.7248 1.73061,-1.48651 2.54817,-2.28461 0.7981,-0.79811 1.54745,-1.61811 2.24792,-2.46032 0.70047,-0.8422 1.35218,-1.7062 1.95441,-2.59312 0.60222,-0.88692 1.15491,-1.79679 1.65829,-2.72903 0.50338,-0.93224 0.95724,-1.88729 1.36116,-2.86546 0.40392,-0.97817 0.75811,-1.97925 1.06195,-3.00395 0.30385,-1.0247 0.5575,-2.07267 0.76068,-3.14451 0.20317,-1.07185 0.35597,-2.16754 0.45785,-3.28714 0.10189,-1.1196 0.15297,-2.26336 0.15297,-3.43131 0,-0.62292 -0.0147,-1.23818 -0.0439,-1.84589 -0.0292,-0.6077 -0.0729,-1.20757 -0.13125,-1.79885 -0.0584,-0.59128 -0.13151,-1.17406 -0.21911,-1.7477 -0.0876,-0.57364 -0.18964,-1.13814 -0.30645,-1.69292 -0.1168,-0.55478 -0.2483,-1.09982 -0.39429,-1.63453 -0.146,-0.5347 -0.30695,-1.05909 -0.48214,-1.57251 -0.17519,-0.51342 -0.36456,-1.01598 -0.56896,-1.50688 -0.20439,-0.49091 -0.42373,-0.97046 -0.65732,-1.43764 -0.2336,-0.46719 -0.47941,-0.92429 -0.73794,-1.37201 -0.25854,-0.44772 -0.52973,-0.88588 -0.81442,-1.31413 -0.28469,-0.42826 -0.58246,-0.84696 -0.89452,-1.25574 -0.31207,-0.40879 -0.6381,-0.80751 -0.97875,-1.19683 -0.34066,-0.38932 -0.69614,-0.76909 -1.06661,-1.13895 -0.37046,-0.36985 -0.75606,-0.73016 -1.15755,-1.08055 -0.40147,-0.35039 -0.8189,-0.69072 -1.25263,-1.02164 -0.43373,-0.33092 -0.88364,-0.65231 -1.35083,-0.96377 -0.66184,-0.46718 -1.36285,-0.91482 -2.10013,-1.34307 -0.73727,-0.42825 -1.51088,-0.83696 -2.31872,-1.22628 -0.80784,-0.38932 -1.64982,-0.759106 -2.52336,-1.109494 -0.87353,-0.350388 -1.77864,-0.681249 -2.71301,-0.992704 -0.9733,-0.311456 -2.0148,-0.623221 -3.12436,-0.932243 -1.10956,-0.309022 -2.28729,-0.615534 -3.53312,-0.917257 -1.24582,-0.301722 -2.55979,-0.598761 -3.94187,-0.888318 -1.38209,-0.289556 -2.8323,-0.571352 -4.35064,-0.843876 V 69.104309 c 1.01223,0.272524 1.99512,0.584073 2.95382,0.936894 0.9587,0.352821 1.8932,0.746956 2.8081,1.18494 0.9149,0.437985 1.81047,0.919959 2.69131,1.447974 0.88083,0.528015 1.74695,1.102048 2.60346,1.724959 0.8565,0.622912 1.68391,1.275311 2.48202,1.959054 0.7981,0.683742 1.56712,1.399266 2.30683,2.148706 0.73971,0.74944 1.44983,1.532823 2.13114,2.352828 0.68131,0.820004 1.33356,1.676501 1.95647,2.571936 l 14.94999,-16.974675 c -0.42825,-0.603445 -0.8761,-1.192266 -1.34359,-1.766817 -0.46749,-0.57455 -0.95459,-1.13477 -1.46192,-1.681034 -0.50734,-0.546264 -1.03507,-1.078216 -1.58285,-1.596802 -0.54779,-0.518586 -1.11596,-1.023637 -1.70481,-1.515153 -0.58884,-0.491516 -1.19831,-0.969483 -1.82883,-1.434538 -0.63051,-0.465054 -1.28161,-0.917305 -1.9544,-1.356506 -0.67279,-0.439201 -1.36688,-0.865552 -2.08256,-1.279508 -0.71568,-0.413957 -1.4531,-0.815258 -2.21227,-1.204578 -0.77864,-0.38932 -1.56734,-0.76199 -2.36575,-1.117245 -0.79841,-0.355254 -1.60638,-0.693219 -2.42517,-1.014408 -0.81879,-0.321189 -1.64793,-0.625482 -2.4877,-0.912606 -0.83978,-0.287123 -1.69042,-0.557228 -2.55179,-0.810286 -0.86137,-0.253058 -1.73383,-0.488975 -2.61741,-0.707967 -0.88357,-0.218993 -1.7782,-0.420721 -2.68459,-0.605648 -0.90638,-0.184927 -1.82455,-0.352984 -2.75435,-0.503845 -0.92981,-0.150862 -1.87132,-0.28473 -2.82515,-0.401526 V 33.44292 Z m 0,34.883142 v 23.047689 c -1.129027,-0.311456 -2.179847,-0.632995 -3.150712,-0.966349 -0.970866,-0.333355 -1.861767,-0.678576 -2.669605,-1.038697 -0.807838,-0.36012 -1.53305,-0.734793 -2.172994,-1.126546 -0.319972,-0.195876 -0.618466,-0.3963 -0.895552,-0.600997 -0.277086,-0.204697 -0.53277,-0.413743 -0.766362,-0.627869 -0.233592,-0.214125 -0.452415,-0.435833 -0.656807,-0.664558 -0.204393,-0.228726 -0.394281,-0.464643 -0.569475,-0.707968 -0.175193,-0.243324 -0.335629,-0.493967 -0.481624,-0.751892 -0.145995,-0.257924 -0.277495,-0.522776 -0.394291,-0.7953 -0.116796,-0.272524 -0.218845,-0.552619 -0.306441,-0.839742 -0.0876,-0.287123 -0.160711,-0.581428 -0.219108,-0.88315 -0.0584,-0.301723 -0.10206,-0.610753 -0.131259,-0.927075 -0.0292,-0.316323 -0.04393,-0.640079 -0.04393,-0.971001 0,-0.389319 0.01709,-0.769003 0.05116,-1.139465 0.03407,-0.370462 0.08535,-0.731867 0.153479,-1.084688 0.06813,-0.352821 0.153085,-0.697132 0.255282,-1.033529 0.102196,-0.336396 0.221339,-0.664798 0.357601,-0.985986 0.136261,-0.321189 0.289592,-0.634864 0.45992,-0.942062 0.170327,-0.307197 0.357847,-0.607847 0.562239,-0.90227 0.204393,-0.294423 0.425584,-0.582715 0.664043,-0.86558 0.238458,-0.282865 0.494354,-0.559984 0.766878,-0.832508 0.272524,-0.272523 0.556747,-0.533369 0.854211,-0.781864 0.297465,-0.248495 0.608104,-0.484959 0.931726,-0.710034 0.323622,-0.225076 0.660312,-0.438524 1.011308,-0.640788 0.350996,-0.202264 0.715954,-0.393031 1.09554,-0.573092 0.379587,-0.18006 0.773997,-0.349514 1.183391,-0.507979 0.409394,-0.158465 0.833923,-0.306422 1.274341,-0.443901 0.880835,-0.274956 1.824805,-0.508139 2.837036,-0.702799 z m 16.663068,47.963998 c 1.16796,0.31146 2.25785,0.64232 3.27008,0.9927 1.01223,0.35039 1.94695,0.72018 2.80345,1.1095 0.8565,0.38932 1.635,0.79854 2.33577,1.2268 0.35039,0.21412 0.68125,0.43294 0.99271,0.6568 0.31145,0.22386 0.60339,0.45267 0.87591,0.68627 0.25306,0.23359 0.49165,0.47209 0.7152,0.71571 0.22356,0.24363 0.43236,0.49245 0.62581,0.74673 0.19344,0.25427 0.37161,0.51375 0.53433,0.77928 0.16272,0.26553 0.30992,0.53703 0.44132,0.81442 0.13139,0.27739 0.24677,0.56073 0.34623,0.85059 0.0995,0.28986 0.18268,0.5859 0.2496,0.88884 0.0669,0.30294 0.11765,0.61251 0.15141,0.92914 0.0338,0.31663 0.0506,0.6406 0.0506,0.97152 0,0.44772 -0.0196,0.88321 -0.0579,1.30689 -0.0383,0.42369 -0.0951,0.83532 -0.17053,1.23559 -0.0754,0.40027 -0.16928,0.78939 -0.2806,1.16685 -0.11132,0.37746 -0.24055,0.74339 -0.38654,1.09864 -0.146,0.35526 -0.30889,0.69936 -0.48834,1.03301 -0.17946,0.33366 -0.37536,0.65678 -0.58705,0.96945 -0.21169,0.31268 -0.43889,0.61515 -0.68161,0.90744 -0.24272,0.2923 -0.50056,0.57446 -0.77308,0.84698 -0.27252,0.27252 -0.56455,0.53531 -0.8754,0.78807 -0.31085,0.25275 -0.64061,0.49574 -0.98857,0.72812 -0.34795,0.23237 -0.71428,0.4542 -1.09812,0.66559 -0.38385,0.21139 -0.78554,0.41224 -1.20406,0.60203 -0.41852,0.18979 -0.85389,0.36881 -1.30587,0.5364 -0.45197,0.16759 -0.92035,0.32341 -1.40456,0.46819 -0.48422,0.14478 -0.98441,0.2781 -1.49965,0.39946 -0.51524,0.12136 -1.04556,0.23081 -1.5906,0.32814 z"
       style="font-size:155.728px;line-height:0.8;font-family:'Hakuna Sans';-inkscape-font-specification:'Hakuna Sans, Normal';letter-spacing:0px;stroke:#000000;stroke-width:7;stroke-linecap:round;stroke-linejoin:round;stroke-miterlimit:50;paint-order:markers fill stroke;filter:url(#filter31)"
       id="path2" />
  </g>
</svg>
